<?xml version="1.0" standalone="no"?>
<!DOCTYPE svg PUBLIC "-//W3C//DTD SVG 20010904//EN"
 "http://www.w3.org/TR/2001/REC-SVG-20010904/DTD/svg10.dtd">
<svg version="1.0" xmlns="http://www.w3.org/2000/svg"
 width="600.000000pt" height="600.000000pt" viewBox="0 0 600.000000 600.000000"
 preserveAspectRatio="xMidYMid meet">
<metadata>
Created by potrace 1.11, written by Peter Selinger 2001-2013
</metadata>
<g transform="translate(0.000000,600.000000) scale(0.100000,-0.100000)"
fill="#000000" stroke="none">
<path d="M0 3000 l0 -3000 3000 0 3000 0 0 3000 0 3000 -3000 0 -3000 0 0
-3000z m3755 2267 c39 -16 75 -32 80 -37 6 -4 48 -17 94 -29 46 -12 97 -32
115 -45 17 -13 63 -40 103 -60 39 -19 74 -40 78 -46 3 -5 32 -28 63 -49 73
-49 242 -217 287 -284 19 -29 45 -65 59 -82 32 -40 140 -255 166 -330 55 -158
75 -272 87 -484 8 -161 -23 -392 -62 -456 -7 -11 -29 -58 -49 -103 -20 -46
-48 -98 -61 -116 -14 -18 -25 -37 -25 -43 0 -6 -18 -37 -40 -69 -22 -33 -40
-69 -40 -81 0 -12 16 -45 35 -74 19 -30 35 -58 35 -62 0 -5 15 -30 33 -56 19
-25 44 -71 56 -101 13 -30 33 -77 46 -105 54 -119 80 -280 72 -454 -10 -218
-30 -334 -87 -496 -26 -75 -134 -290 -166 -330 -14 -16 -40 -53 -59 -82 -45
-67 -214 -235 -287 -284 -31 -21 -60 -44 -63 -49 -4 -6 -39 -27 -78 -47 -40
-19 -86 -46 -103 -59 -17 -14 -69 -34 -115 -45 -46 -12 -88 -25 -94 -29 -5 -5
-41 -21 -80 -37 l-70 -28 -1080 -3 -1080 -2 -27 22 c-15 13 -28 30 -29 38 -1
8 -1 121 0 250 1 232 1 235 24 250 19 13 159 16 1022 20 887 5 1006 8 1053 22
29 9 63 23 75 31 12 7 57 26 99 42 43 15 83 34 90 43 7 8 38 33 68 56 67 49
91 73 138 134 19 26 38 49 42 52 3 3 12 21 20 40 7 19 29 59 48 88 51 79 71
194 73 424 1 237 -18 353 -71 428 -11 15 -29 47 -40 71 -25 56 -122 166 -222
255 -43 38 -78 74 -78 80 0 6 21 28 46 49 43 35 111 102 196 192 21 21 47 61
59 88 12 28 30 62 41 77 51 74 70 191 69 426 -2 231 -22 346 -73 424 -20 29
-38 63 -42 75 -9 28 -98 149 -133 180 -16 14 -53 43 -83 66 -30 22 -59 47 -65
54 -5 6 -48 26 -95 43 -46 17 -90 36 -97 41 -6 6 -36 18 -65 27 -47 14 -167
17 -1053 22 -863 4 -1003 7 -1022 20 -23 15 -23 18 -24 250 -1 129 -1 242 0
250 1 8 14 25 29 38 l27 22 1080 -2 1080 -3 70 -28z m-110 -803 c146 -76 195
-107 221 -142 16 -20 39 -46 51 -57 34 -30 88 -126 112 -197 51 -156 50 -492
-3 -632 -32 -85 -82 -166 -122 -199 -19 -16 -41 -41 -48 -56 -8 -14 -36 -38
-63 -52 -26 -14 -71 -40 -98 -57 -31 -20 -74 -36 -110 -42 -36 -6 -457 -10
-1058 -10 -1065 0 -1048 -1 -1058 47 -2 10 -3 125 -1 256 l3 238 32 19 c31 20
55 20 935 20 608 0 909 3 922 10 11 6 25 20 31 31 15 28 15 200 -1 228 -28 54
-9 53 -975 49 -877 -3 -890 -3 -917 17 l-27 20 -3 238 c-2 131 0 247 4 257 19
51 -16 50 1088 47 l1026 -2 59 -31z m-69 -1583 c44 -7 82 -22 135 -53 41 -24
86 -50 102 -58 15 -7 27 -17 27 -22 0 -5 22 -31 49 -57 149 -150 200 -356 170
-691 -15 -164 -61 -268 -172 -391 -56 -62 -111 -99 -237 -162 l-65 -32 -1022
-3 c-919 -3 -1026 -1 -1053 13 -17 9 -34 25 -38 35 -4 10 -6 126 -4 257 l3
239 32 19 c31 19 60 19 918 16 959 -3 941 -4 969 50 13 24 17 180 6 216 -4 12
-18 28 -31 37 -22 15 -114 16 -927 16 -880 0 -904 0 -935 20 l-32 19 -3 238
c-2 131 -1 246 1 256 10 47 -9 46 1051 46 547 1 1022 -3 1056 -8z"/>
</g>
</svg>
